<?xml version="1.0" standalone="no"?>
<!DOCTYPE svg PUBLIC "-//W3C//DTD SVG 20010904//EN"
 "http://www.w3.org/TR/2001/REC-SVG-20010904/DTD/svg10.dtd">
<svg version="1.0" xmlns="http://www.w3.org/2000/svg"
 width="1080.000000pt" height="1080.000000pt" viewBox="0 0 1080.000000 1080.000000"
 preserveAspectRatio="xMidYMid meet">
<metadata>
Created by potrace 1.14, written by Peter Selinger 2001-2017
</metadata>
<g transform="translate(0.000000,1080.000000) scale(0.100000,-0.100000)"
fill="#000000" stroke="none">
<path d="M3085 10650 c-1 -3 -3 -457 -3 -1010 0 -553 -1 -1013 -1 -1022 -1
-17 -32 -18 -514 -18 l-512 0 1 -502 c0 -277 -1 -508 -3 -514 -3 -8 -147 -11
-509 -12 -278 0 -508 -2 -511 -5 -3 -3 -5 -350 -5 -771 l0 -766 -514 0 -514 0
0 -1028 0 -1029 515 -1 515 0 0 514 0 514 513 -2 512 -3 0 -510 0 -510 495 -2
c272 -1 504 -2 515 -2 19 -1 20 -8 19 -256 l-1 -255 26 -1 c122 -4 993 0 997
4 4 3 6 234 6 514 l0 508 -502 2 c-276 1 -507 4 -513 6 -9 3 -12 74 -12 253
l0 249 2311 3 2312 2 0 -255 0 -255 -32 0 c-17 -1 -247 -2 -511 -3 l-480 -2 0
-514 0 -513 513 -2 512 -1 0 258 0 257 43 1 c23 0 254 1 512 2 l470 2 2 505
c1 278 2 508 2 513 1 4 232 7 514 7 l512 0 0 -512 0 -513 515 0 515 0 0 1025
0 1025 -515 5 -515 5 0 769 0 769 -512 0 c-464 0 -513 1 -514 16 0 9 -1 240
-1 514 l-1 497 -513 0 -514 0 0 1028 0 1027 -515 0 -515 0 0 -1027 0 -1028
-1284 0 -1284 0 0 1003 c-1 551 -1 1013 -1 1027 l-1 25 -511 0 c-281 0 -512
-2 -514 -5z m1025 -3589 c0 -398 -3 -510 -12 -513 -11 -4 -993 -3 -1008 1 -4
1 -5 1010 -1 1019 0 1 231 2 511 2 l510 0 0 -509z m3598 -1 c0 -464 -2 -510
-17 -511 -9 -1 -239 -2 -512 -3 l-496 -1 0 512 0 513 512 0 513 0 0 -510z"/>
<path d="M0 1687 l0 -1687 442 2 441 3 0 480 0 480 881 0 881 0 2 230 c1 127
2 235 3 240 0 7 76 10 218 10 l217 0 2 720 c0 396 -3 722 -7 725 -5 3 -104 5
-219 5 -137 0 -211 3 -212 10 0 5 0 112 0 238 0 125 -3 228 -7 228 -4 1 -600
2 -1324 3 l-1318 1 0 -1688z m2197 1199 c8 -8 8 -1424 1 -1432 -8 -7 -1294 -7
-1306 0 -5 3 -9 327 -9 720 0 630 2 716 15 718 29 6 1294 -1 1299 -6z"/>
<path d="M4100 3370 c-5 -3 -8 -110 -7 -238 1 -147 -2 -233 -8 -235 -5 -2
-124 -3 -262 -2 l-253 0 0 -482 0 -483 63 -1 c34 0 151 -1 260 -1 l197 0 0
-76 c1 -43 2 -151 3 -242 l2 -165 1042 0 c1036 0 1043 0 1044 -20 1 -24 1
-903 0 -926 -1 -14 -75 -16 -781 -16 -554 0 -780 3 -781 11 0 6 -1 115 -2 241
l-2 230 -522 0 -523 0 0 -242 0 -243 260 0 260 0 1 -22 c0 -13 0 -121 0 -240
l0 -218 1309 0 1309 0 0 218 c0 119 0 227 0 240 l1 22 260 0 260 0 0 484 0
484 -256 0 c-141 0 -258 3 -261 6 -3 2 -5 111 -5 240 l0 236 -1044 0 -1044 0
-1 33 c-4 155 -1 919 4 923 10 11 1557 10 1558 -1 0 -5 1 -115 1 -242 l0 -233
524 0 524 0 0 243 0 242 -260 0 -260 0 -1 25 c0 14 0 121 0 238 -1 116 -4 213
-7 213 -23 4 -2595 3 -2602 -1z"/>
<path d="M8596 3370 c-1 -3 -2 -110 -2 -237 1 -128 -1 -234 -4 -234 -3 -1
-102 -2 -220 -3 l-215 -1 -2 -220 c-1 -121 -2 -230 -2 -242 -1 -21 -4 -21
-173 -21 -95 0 -194 -1 -219 -1 l-47 -1 0 -723 1 -724 214 1 c118 1 217 -3
220 -8 3 -5 6 -114 5 -242 l0 -234 222 0 221 0 0 -240 0 -240 1102 0 1103 0 0
965 0 965 -663 0 -662 0 0 -240 c0 -155 3 -240 10 -241 5 -1 105 -2 220 -3
l210 -1 1 -481 1 -481 -439 0 c-392 0 -438 2 -439 16 0 9 -1 111 -1 226 0 116
-1 217 -4 225 -3 13 -34 15 -219 15 -139 0 -215 3 -216 10 -1 14 -1 1407 0
1423 1 9 52 12 220 12 l219 0 -1 235 c0 129 2 237 5 241 4 3 400 6 882 6 l876
0 0 241 0 242 -1101 0 c-605 0 -1102 -2 -1103 -5z"/>
</g>
</svg>
